<svg version="1.0" xmlns="http://www.w3.org/2000/svg"
 width="839.000000pt" height="694.000000pt" viewBox="0 0 839.000000 694.000000"
 preserveAspectRatio="xMidYMid meet">
    <style>
        path {
            fill: #ea580c;
        }
        @media (prefers-color-scheme: dark) {
            path { fill: #ea580c; }
        }
    </style>
<g transform="translate(0.000000,694.000000) scale(0.100000,-0.100000)"
fill="#ea580c" stroke="none"
>
<path d="M5463 6675 c-17 -7 -36 -22 -42 -34 -7 -13 -11 -167 -11 -471 l0
-452 29 -29 29 -29 197 0 c161 0 196 -2 192 -13 -22 -57 -107 -332 -105 -338
2 -4 62 26 133 68 72 41 211 122 311 179 l180 104 736 0 735 0 27 25 c16 15
26 35 26 52 0 15 1 221 1 456 2 412 1 429 -18 455 -10 14 -32 29 -48 33 -15 5
-548 8 -1184 8 -963 0 -1161 -2 -1188 -14z m2402 -30 l25 -24 0 -449 0 -449
-26 -24 -26 -24 -741 -5 -742 -5 -205 -119 c-113 -65 -243 -141 -289 -168 -46
-27 -85 -47 -87 -46 -1 2 11 44 27 93 16 50 40 125 53 167 l24 77 -205 3 -205
3 -24 28 -24 28 0 435 c0 364 2 440 15 464 8 15 20 30 27 33 7 3 545 6 1196 6
l1183 1 24 -25z"/>
<path d="M6231 6569 c-11 -12 -28 -44 -38 -72 -36 -100 -131 -173 -270 -208
l-53 -13 0 -213 0 -213 245 0 245 0 16 25 c15 22 15 27 1 48 -13 21 -13 25 4
46 23 28 24 49 3 80 -15 21 -15 23 5 37 27 19 27 58 1 84 -19 19 -19 22 -5 43
21 30 19 44 -10 72 -18 19 -35 25 -70 25 -25 0 -45 2 -45 3 0 2 9 29 19 60 11
30 22 79 25 109 11 87 -29 134 -73 87z"/>
<path d="M6600 6481 l0 -29 540 -1 540 -1 0 30 0 30 -540 0 -540 0 0 -29z"/>
<path d="M6600 6296 c0 -15 7 -26 16 -28 10 -2 97 -2 195 0 l179 3 0 24 0 25
-195 0 -195 0 0 -24z"/>
<path d="M7130 6295 l0 -25 275 0 275 0 0 25 0 25 -275 0 -275 0 0 -25z"/>
<path d="M5660 6065 l0 -215 75 0 75 0 0 215 0 215 -75 0 -75 0 0 -215z"/>
<path d="M6600 6105 l0 -25 315 0 315 0 0 25 0 25 -315 0 -315 0 0 -25z"/>
<path d="M7350 6105 l0 -25 165 0 165 0 0 25 0 25 -165 0 -165 0 0 -25z"/>
<path d="M6600 5915 l0 -25 369 0 c346 0 369 1 366 18 -2 9 -4 20 -4 25 -1 4
-165 7 -366 7 l-365 0 0 -25z"/>
<path d="M439 6581 l-29 -29 0 -457 0 -457 29 -29 29 -29 739 -1 738 0 305
-178 c168 -97 306 -173 308 -167 1 6 -22 87 -51 179 l-55 167 195 0 195 0 29
29 29 29 0 456 0 455 -24 28 -24 28 -1192 3 -1191 2 -30 -29z m2430 -17 c21
-26 21 -37 21 -469 0 -432 0 -443 -21 -469 l-20 -26 -205 0 c-175 0 -204 -2
-204 -15 0 -8 23 -85 50 -171 28 -86 50 -158 48 -159 -2 -2 -137 75 -301 170
l-298 174 -737 0 -737 0 -22 26 -23 26 0 445 0 445 25 24 24 25 1190 0 1190 0
20 -26z"/>
<path d="M965 6440 c-27 -4 -67 -15 -89 -25 -53 -23 -133 -100 -164 -160 -24
-44 -27 -61 -27 -150 0 -86 3 -106 24 -145 37 -70 76 -113 133 -147 141 -84
313 -60 424 59 69 74 89 125 89 233 0 78 -4 98 -28 146 -65 134 -215 212 -362
189z m-48 -148 c36 -23 38 -105 4 -136 -44 -40 -92 46 -60 107 18 34 35 43 56
29z m237 -14 c23 -32 20 -94 -4 -118 -26 -26 -35 -25 -54 2 -23 32 -20 94 4
118 26 26 35 25 54 -2z m32 -252 c9 -23 -13 -54 -59 -80 -54 -32 -114 -42
-163 -26 -68 22 -135 84 -119 110 4 6 74 10 171 10 133 0 166 -3 170 -14z"/>
<path d="M1560 6385 l0 -25 540 0 540 0 0 25 0 25 -540 0 -540 0 0 -25z"/>
<path d="M1560 6200 l0 -30 140 0 140 0 0 30 0 30 -140 0 -140 0 0 -30z"/>
<path d="M1950 6200 l0 -30 346 0 345 0 -3 28 -3 27 -342 3 -343 2 0 -30z"/>
<path d="M1560 6010 l0 -30 355 0 355 0 0 30 0 30 -355 0 -355 0 0 -30z"/>
<path d="M2397 6034 c-4 -4 -7 -18 -7 -31 0 -23 1 -23 126 -23 l125 0 -3 28
-3 27 -116 3 c-63 1 -118 -1 -122 -4z"/>
<path d="M1560 5820 l0 -30 365 0 365 0 0 30 0 30 -365 0 -365 0 0 -30z"/>
<path d="M4245 5929 c-33 -5 -70 -7 -82 -4 -40 9 -167 -15 -230 -45 -120 -56
-217 -189 -244 -335 -6 -33 -17 -74 -25 -92 -29 -64 -14 -150 39 -217 27 -35
29 -41 18 -75 -13 -46 -105 -235 -132 -273 l-21 -29 -201 7 c-231 7 -331 -3
-409 -39 -290 -136 -540 -717 -657 -1527 -33 -229 -36 -280 -17 -280 17 0 19
-11 10 -57 l-6 -30 -71 14 c-89 18 -265 12 -357 -12 -250 -66 -452 -243 -538
-473 -37 -99 -43 -266 -12 -383 12 -46 35 -109 51 -139 17 -30 49 -107 71
-170 220 -626 680 -1039 1347 -1210 l117 -30 1620 1 c1278 1 1625 4 1649 14
17 7 43 27 59 44 24 25 30 42 34 88 4 56 2 61 -53 148 -31 50 -84 128 -117
173 l-60 84 38 31 c161 131 439 401 578 562 173 200 343 448 419 615 168 369
139 640 -95 886 -87 92 -154 137 -248 168 -167 55 -307 44 -645 -53 -115 -33
-213 -57 -217 -55 -4 3 -8 13 -8 23 0 28 -66 229 -111 336 -52 127 -114 249
-183 365 -31 51 -56 96 -56 100 0 3 25 20 55 35 114 60 152 126 101 174 l-24
23 24 35 c30 44 31 79 3 93 -12 7 -53 10 -95 8 -41 -2 -74 -2 -74 -1 0 0 31
90 70 200 38 109 70 212 70 229 0 20 -9 39 -25 54 l-24 23 -283 -8 c-209 -5
-290 -11 -310 -21 -23 -12 -34 -37 -80 -174 l-53 -160 -40 -11 c-52 -14 -129
-53 -186 -95 l-45 -33 -60 60 c-73 75 -154 139 -240 189 l-65 38 45 26 c61 36
123 108 162 191 32 67 64 170 64 206 0 11 13 22 38 30 153 49 258 166 282 312
26 162 -74 339 -238 419 -60 30 -75 33 -166 35 -56 1 -128 -3 -161 -8z m-69
-527 c73 -61 168 -49 219 26 l24 36 27 -58 c73 -159 20 -438 -109 -582 -51
-56 -114 -91 -179 -100 -142 -20 -275 155 -319 421 -11 62 -16 74 -29 69 -45
-20 -89 5 -120 66 -49 99 -25 200 49 200 29 0 78 -46 91 -84 12 -36 30 -46 92
-46 72 0 124 34 160 104 l20 39 18 -30 c10 -16 35 -44 56 -61z m-356 -235 c0
-45 40 -182 75 -255 21 -45 56 -96 91 -132 32 -34 51 -60 42 -60 -11 0 -15
-14 -17 -57 -5 -131 -39 -203 -94 -203 -18 0 -44 7 -57 16 -73 49 -176 175
-249 306 l-32 56 43 79 c42 76 96 190 117 246 9 22 16 27 46 27 30 0 35 -3 35
-23z m1027 -631 c-10 -26 -19 -106 -12 -106 4 0 49 11 100 25 247 67 439 93
452 59 15 -40 -126 -143 -280 -203 -67 -26 -131 -51 -142 -56 -11 -4 -15 -9
-9 -11 6 -3 64 16 130 42 228 89 490 150 551 128 37 -13 39 -31 7 -80 -25 -39
-35 -44 -228 -119 -187 -73 -236 -95 -209 -95 9 0 312 116 390 150 26 11 73
-21 73 -50 0 -47 -124 -123 -314 -192 -61 -22 -115 -44 -120 -49 -16 -14 4
-11 62 11 69 27 77 25 53 -9 -39 -54 -116 -74 -421 -111 l-95 -12 -49 -131
c-259 -695 -648 -1257 -951 -1372 l-46 -18 -200 79 -199 79 -75 75 c-88 88
-157 180 -207 276 -36 70 -88 204 -88 229 0 7 46 51 103 97 56 46 214 175 351
287 136 111 252 199 256 194 21 -23 120 -167 120 -175 0 -6 -39 -57 -86 -115
-47 -58 -83 -107 -80 -111 3 -3 7 -3 9 -1 2 2 71 87 153 189 309 381 458 578
577 762 121 185 210 268 343 323 67 28 88 31 81 11z m693 -578 c238 -402 368
-834 331 -1103 -32 -236 -168 -301 -441 -213 -214 69 -487 250 -723 478 l-118
115 59 125 c60 125 164 381 177 433 13 52 -8 99 255 -570 57 -145 107 -263
112 -263 4 0 4 10 -1 23 -13 32 -332 840 -337 853 -3 6 51 17 146 28 266 32
339 56 375 127 13 24 57 54 102 68 1 1 30 -45 63 -101z m1112 -609 c177 -37
342 -179 443 -379 69 -137 80 -275 35 -450 -80 -310 -327 -677 -715 -1065
-142 -143 -378 -355 -394 -355 -5 0 -47 44 -94 98 -247 284 -599 528 -964 668
-189 72 -196 76 -181 90 7 7 207 151 443 321 344 247 441 312 480 322 90 23
140 80 171 196 18 67 18 245 -1 341 -8 43 -14 79 -12 80 6 6 419 118 476 129
83 16 243 18 313 4z m-1815 -384 c0 -10 -466 -139 -474 -131 -2 2 23 47 56 99
34 53 84 139 112 192 l51 95 127 -122 c70 -68 128 -127 128 -133z m-2142 -5
c176 -28 332 -53 346 -56 19 -4 32 -17 45 -47 30 -67 105 -176 178 -260 l68
-77 -49 19 c-26 11 -250 101 -498 200 -247 100 -457 185 -466 189 -12 6 -14
15 -6 50 8 40 10 43 35 38 15 -3 171 -29 347 -56z m-461 -31 c77 -13 71 -11
846 -324 366 -147 836 -336 1045 -420 l380 -153 12 -59 c63 -305 25 -639 -103
-895 -48 -97 -131 -219 -197 -293 l-54 -59 -119 23 c-777 155 -1595 462 -2302
864 -226 129 -301 199 -376 352 -172 353 12 772 404 923 152 58 288 70 464 41z
m2728 -47 c230 -169 446 -272 607 -289 l61 -6 -87 -63 c-289 -209 -718 -516
-755 -542 l-45 -31 -458 185 c-252 101 -460 186 -463 188 -2 3 21 16 52 31 31
14 82 46 114 70 74 56 222 209 294 306 l56 75 264 72 c145 39 264 71 265 71 2
1 45 -30 95 -67z m-246 -936 l120 -48 31 -82 c144 -381 159 -774 43 -1148 -23
-74 -24 -75 -95 -58 -41 9 -616 110 -629 110 -4 0 16 26 44 57 77 87 178 242
222 346 98 226 132 510 93 771 -20 135 -21 129 18 113 17 -7 86 -35 153 -61z
m368 -147 c418 -185 796 -509 1061 -909 79 -119 105 -168 105 -198 0 -34 -24
-84 -55 -112 l-27 -25 -311 -3 c-408 -4 -867 17 -944 43 -9 3 -5 24 13 77 47
138 65 252 71 441 6 195 -3 297 -42 462 -19 82 -64 229 -92 301 -7 18 57 -4
221 -77z m-3378 -182 c488 -281 1038 -520 1579 -688 94 -29 173 -57 177 -63 4
-6 8 -42 8 -81 0 -67 10 -147 25 -208 l7 -28 -328 3 -329 4 -118 32 c-345 94
-626 259 -868 509 -176 183 -319 414 -403 651 l-26 73 69 -62 c40 -37 125 -94
207 -142z m1984 -801 c211 -54 396 -93 675 -141 116 -20 284 -50 373 -66 90
-17 207 -37 260 -44 86 -11 5 -13 -694 -14 l-791 -1 -12 73 c-7 39 -15 112
-18 161 -6 84 -5 88 13 82 10 -3 98 -26 194 -50z"/>
<path d="M3724 5368 c6 -32 41 -78 59 -78 5 0 -3 14 -17 31 -14 17 -26 41 -26
55 0 13 -5 24 -11 24 -8 0 -9 -11 -5 -32z"/>
</g>
</svg>